<svg version="1.1" id="Layer_1" xmlns="http://www.w3.org/2000/svg" xmlns:xlink="http://www.w3.org/1999/xlink" x="0px" y="0px"
	 width="100%" viewBox="0 0 496 496" enable-background="new 0 0 496 496" xml:space="preserve">
<path fill="#000000" opacity="1.000000" stroke="none" 
	d="
M392.228668,321.097473 
	C395.950195,338.619690 398.047028,356.000092 398.007477,373.400543 
	C397.911926,415.453705 381.475616,448.988800 345.037262,471.914612 
	C328.855377,482.095703 311.040833,486.771759 292.708618,490.305420 
	C272.419312,494.216339 252.005951,492.848206 231.573639,491.557526 
	C214.822113,490.499359 198.594406,487.617950 183.432693,480.089752 
	C148.606216,462.797546 126.695808,435.717255 120.618675,396.784515 
	C117.879303,379.234924 119.320518,361.733673 121.414360,344.202942 
	C125.279655,311.840637 136.156693,281.854767 151.810974,253.526550 
	C164.245560,231.024780 179.792908,210.574615 194.992767,189.913589 
	C214.212128,163.788925 231.423294,136.553650 241.145630,105.249092 
	C246.430847,88.231476 248.896759,70.634407 251.603149,53.103409 
	C253.797012,38.892521 255.599426,24.621206 257.654144,9.809597 
	C260.385315,11.186991 260.135529,13.040051 260.365356,14.730562 
	C263.871185,40.521049 266.777466,66.427147 272.737488,91.801872 
	C280.211670,123.623024 296.133240,151.443451 314.793091,177.842316 
	C325.653748,193.207336 336.754333,208.402557 347.714996,223.697113 
	C368.815491,253.140961 383.460358,285.549255 392.228668,321.097473 
M263.869141,410.261963 
	C272.834045,409.249725 281.515442,407.145416 289.869720,403.688202 
	C309.659332,395.498840 324.616364,382.825409 329.789124,360.977173 
	C329.869507,360.637817 330.372589,360.398529 330.768799,360.028015 
	C331.738770,362.154572 331.258179,364.143799 331.108246,366.107697 
	C329.899445,381.940399 323.183319,395.318726 312.084564,406.330872 
	C284.507355,433.692902 239.000229,443.010315 200.416397,425.895020 
	C186.729706,419.823792 176.147873,410.021576 166.206161,399.250275 
	C175.787781,418.017853 190.327774,431.634277 209.416183,440.290863 
	C228.213791,448.815552 248.046570,451.364288 268.380096,448.465973 
	C283.543884,446.304565 298.439636,443.155701 311.032440,433.168518 
	C326.966370,420.531464 340.614136,406.497925 346.626770,386.277374 
	C351.388153,370.264862 349.622253,354.215637 347.353973,338.334503 
	C342.118286,301.676697 327.634430,268.850433 304.819153,239.581360 
	C290.601929,221.342453 276.126099,203.201782 267.422272,181.353638 
	C259.029510,160.286224 257.221588,138.512253 260.044952,115.992188 
	C268.029846,132.631241 276.494263,148.922043 288.035217,163.363831 
	C272.885712,134.803711 261.638031,105.001823 258.418427,72.549644 
	C258.295288,77.266281 257.288727,81.802597 256.532562,86.404488 
	C251.244812,118.584190 241.784210,149.456741 228.310669,179.138321 
	C217.840790,202.202988 204.780121,223.961670 194.219131,246.973419 
	C180.965042,275.853363 171.255737,305.505920 175.361710,337.985352 
	C177.748566,356.865997 184.903320,373.578186 198.509415,387.152344 
	C216.339294,404.940460 238.073730,412.153839 263.869141,410.261963 
M209.981979,464.653778 
	C202.914612,460.489471 196.327225,455.603577 191.099960,449.312073 
	C181.141724,437.326630 169.641281,427.110474 157.141434,417.910492 
	C153.939240,415.553680 151.551987,412.134460 147.463425,409.916901 
	C148.458466,413.253662 150.330582,415.207916 152.148758,417.104309 
	C164.570984,430.060852 176.922089,443.054138 187.519272,457.625793 
	C191.160538,462.632690 196.341537,466.226440 201.757278,469.201416 
	C214.292999,476.087616 227.318924,479.468628 242.138824,473.858734 
	C230.497025,473.017975 220.172302,470.378571 209.981979,464.653778 
M340.072662,449.565155 
	C354.433014,438.457794 365.473114,420.799957 364.914551,409.114471 
	C348.735199,442.778351 321.112518,458.418884 283.909271,461.433807 
	C288.316711,463.962738 291.461761,464.565674 294.794891,464.671875 
	C311.485321,465.203583 326.037537,459.260284 340.072662,449.565155 
M364.494934,302.181915 
	C367.516815,319.011017 370.327606,335.854980 368.099335,353.026978 
	C379.714172,311.826660 368.073425,275.437134 345.041168,241.441788 
	C353.159332,260.829620 360.957611,280.366760 364.494934,302.181915 
z"/>
<path fill="#000000" opacity="1.000000" stroke="none" 
	d="
M199.948486,301.733337 
	C198.781570,312.313293 198.950043,322.457703 200.598267,332.488831 
	C202.275421,342.696228 205.556259,352.393494 210.441025,361.628540 
	C215.091095,370.419891 223.304291,376.538940 227.914368,385.389435 
	C219.452820,382.505585 213.149124,376.996826 207.786148,370.460297 
	C196.939072,357.239594 192.317017,341.830902 191.538879,324.845917 
	C189.998779,291.229523 201.247040,261.152374 216.301956,232.042953 
	C218.823151,227.168091 221.593155,222.418777 224.351974,217.671753 
	C225.219284,216.179398 225.951172,214.335938 228.271881,214.111877 
	C230.258255,216.657669 228.380707,218.607895 227.414917,220.502319 
	C217.719849,239.519653 209.448212,259.098663 203.891907,279.752380 
	C201.992050,286.814453 200.613358,293.983002 199.948486,301.733337 
z"/>
</svg>