<?xml version="1.0" encoding="iso-8859-1"?>
<!-- Uploaded to: SVG Repo, www.svgrepo.com, Generator: SVG Repo Mixer Tools -->
<svg height="800px" width="800px" version="1.1" id="Layer_1" xmlns="http://www.w3.org/2000/svg" xmlns:xlink="http://www.w3.org/1999/xlink" 
	 viewBox="0 0 512.001 512.001" xml:space="preserve">
<path style="fill:#D8BF77;" d="M387.423,371.684L278.26,262.521v-95.563c0-24.549-19.972-44.522-44.522-44.522
	s-44.522,19.972-44.522,44.522v6.52L19.019,3.28c-0.012-0.012-0.024-0.024-0.037-0.037l-0.001-0.001
	c-0.003-0.003-0.008-0.007-0.011-0.01C16.958,1.235,14.189,0,11.13,0C4.983,0,0,4.983,0,11.13v272.696
	c0,58.305,47.435,105.739,105.739,105.739s105.739-47.435,105.739-105.739V227.22L256,271.742v84.432
	c0,6.147,4.983,11.13,11.13,11.13s11.13-4.983,11.13-11.13v-62.171l93.422,93.422c2.174,2.174,5.022,3.26,7.87,3.26
	s5.698-1.086,7.87-3.26C391.77,383.078,391.77,376.031,387.423,371.684z M189.217,283.827c0,46.03-37.448,83.478-83.478,83.478
	s-83.478-37.448-83.478-83.478V38.004L189.217,204.96V283.827z M211.478,195.739v-28.781c0-12.275,9.986-22.261,22.261-22.261
	S256,154.683,256,166.958v73.302L211.478,195.739z"/>
<path style="fill:#636363;" d="M387.42,387.425c-2.174,2.173-5.022,3.26-7.87,3.26c-2.848,0-5.697-1.087-7.87-3.26l-93.419-93.419
	v-31.482l109.16,109.16C391.768,376.029,391.768,383.077,387.42,387.425z M3.259,3.261c-4.346,4.346-4.344,11.396,0.002,15.744
	L256,271.745v-31.482L18.999,3.259C14.651-1.089,7.605-1.084,3.259,3.261z"/>
<path style="fill:#B94B00;" d="M415.646,368.424l86.575,86.575c13.04,13.04,13.04,34.183,0,47.222l0,0
	c-13.04,13.04-34.183,13.04-47.222,0l-86.575-86.575c-13.04-13.04-13.04-34.183,0-47.222l0,0
	C381.463,355.384,402.606,355.384,415.646,368.424z"/>
<path style="fill:#EA5F00;" d="M502.221,454.998c0.441,0.441,0.864,0.892,1.274,1.35c-0.411,0.459-0.834,0.909-1.274,1.35
	c-13.04,13.04-34.183,13.04-47.222,0l-86.575-86.575c-0.441-0.441-0.864-0.892-1.274-1.35c0.411-0.459,0.834-0.909,1.274-1.35l0,0
	c13.04-13.04,34.183-13.04,47.222,0L502.221,454.998z"/>
<path style="fill:#636363;" d="M278.26,378.435v89.043c0,24.55-19.972,44.522-44.522,44.522s-44.522-19.971-44.522-44.522v-28.78
	l-14.391,14.391c-4.346,4.346-11.394,4.346-15.742,0c-4.346-4.346-4.346-11.394,0-15.742l33.391-33.391
	c3.182-3.182,7.97-4.136,12.13-2.412c4.159,1.722,6.871,5.78,6.871,10.282v55.652c0,12.274,9.986,22.261,22.261,22.261
	s22.261-9.987,22.261-22.261v-89.043c0-6.146,4.983-11.13,11.13-11.13S278.26,372.289,278.26,378.435z"/>
<path style="fill:#FF4800;" d="M300.521,356.175c0,18.412-14.979,33.391-33.391,33.391c-18.412,0-33.391-14.979-33.391-33.391
	s14.979-33.391,33.391-33.391C285.541,322.784,300.521,337.763,300.521,356.175z"/>
<path style="fill:#FF7443;" d="M289.391,350.61c0,9.206-7.49,16.696-16.696,16.696c-9.206,0-16.696-7.49-16.696-16.696
	c0-9.206,7.49-16.696,16.696-16.696C281.902,333.914,289.391,341.404,289.391,350.61z"/>
</svg>