<svg id="Layer_1" data-name="Layer 1" xmlns="http://www.w3.org/2000/svg" xmlns:xlink="http://www.w3.org/1999/xlink" viewBox="0 0 207.68 207.69"><defs><style>.cls-1{fill:#fff;}.cls-2{fill:url(#linear-gradient);}.cls-3{fill:#ff4343;}.cls-4{fill:#ff8f8f;}.cls-5{fill:#72005d;}.cls-6{fill:#8c006b;}.cls-7{fill:#c9062b;}.cls-8{fill:url(#linear-gradient-2);}</style><linearGradient id="linear-gradient" x1="103.84" y1="198.92" x2="103.84" y2="8.9" gradientUnits="userSpaceOnUse"><stop offset="0" stop-color="#72005d"/><stop offset="0.72" stop-color="#d6304b"/><stop offset="1" stop-color="#ff4343"/></linearGradient><linearGradient id="linear-gradient-2" x1="1315.93" y1="-645.78" x2="1229.04" y2="-645.78" gradientTransform="translate(748.66 1374.83) rotate(-90)" gradientUnits="userSpaceOnUse"><stop offset="0" stop-color="#ff4343"/><stop offset="0.15" stop-color="#f83f45"/><stop offset="0.37" stop-color="#e6354c"/><stop offset="0.62" stop-color="#c82356"/><stop offset="0.89" stop-color="#9f0b65"/><stop offset="1" stop-color="#8c006b"/></linearGradient></defs><circle class="cls-1" cx="104.79" cy="102.34" r="95.38"/><path class="cls-2" d="M138.76,6C98.28-8.81,50.83,4.46,23.62,37.76c-27.54,33.7-31.61,82.3-9,119.75S81.33,214,124.06,205.83c48.43-9.22,83.08-53.23,83.62-101.92A105.34,105.34,0,0,0,138.76,6ZM132.53,183a85.2,85.2,0,0,1-93.61-25.42c-22.78-27.1-25.34-67.08-7.12-97.21,18-29.68,53.85-45.9,88-39a85.09,85.09,0,0,1,68,82.59C187.44,138.73,165.73,171.18,132.53,183Z"/><polygon class="cls-3" points="101.44 33.23 62.47 67.22 76.82 76.93 101.44 54.94 101.44 33.23"/><polygon class="cls-4" points="105.27 33.23 144.24 67.22 129.89 76.93 105.26 54.94 105.27 33.23"/><polygon class="cls-3" points="146.57 71.07 146.57 133.18 131.39 124.69 131.39 80.49 146.57 71.07"/><polygon class="cls-5" points="100.97 171.49 61.99 137.51 76.35 127.8 100.97 149.78 100.97 171.49"/><polygon class="cls-6" points="104.8 171.49 143.77 137.51 129.42 127.8 104.79 149.78 104.8 171.49"/><polygon class="cls-7" points="59.4 71.07 59.4 133.18 74.58 124.69 74.58 80.49 59.4 71.07"/><polygon class="cls-8" points="78.44 80.62 78.44 124.06 102.88 145.79 127.33 124.06 127.33 80.62 102.88 58.9 78.44 80.62"/></svg>