<?xml version="1.0" encoding="iso-8859-1"?>
<!-- Uploaded to: SVG Repo, www.svgrepo.com, Generator: SVG Repo Mixer Tools -->
<!DOCTYPE svg PUBLIC "-//W3C//DTD SVG 1.1//EN" "http://www.w3.org/Graphics/SVG/1.1/DTD/svg11.dtd">
<svg version="1.1" id="Capa_1" xmlns="http://www.w3.org/2000/svg" xmlns:xlink="http://www.w3.org/1999/xlink" 
	 viewBox="0 0 94.069 94.069" xml:space="preserve">
<g>
	<rect x="66.831" y="16.413" style="fill-rule:evenodd;clip-rule:evenodd;fill:#21A58D;" width="10.179" height="2.786"/>
	<rect x="18.908" y="16.413" style="fill-rule:evenodd;clip-rule:evenodd;fill:#21A58D;" width="10.18" height="2.786"/>
	<rect x="47.423" y="20.278" style="fill-rule:evenodd;clip-rule:evenodd;fill:#5A5657;" width="0.308" height="2.742"/>
	<path style="fill-rule:evenodd;clip-rule:evenodd;fill:#5C3F25;" d="M62.149,5.608h-6.986H47.73H34.09
		c-2.811,0-5.101,2.271-5.101,5.058V22.41c0,0.897,0.734,1.627,1.64,1.627c0.686,0,1.273-0.422,1.519-1.017h4.936l0.243,0.027
		l0.24-0.027h9.857v-2.742H35.955c0,0,0.038-7.392,0.067-8.94l11.708,0.009v0.005l13.117,0.015c0.025,1.653,0.116,8.912,0.116,8.912
		H47.73v2.742h11.219l0.24,0.027l0.244-0.027h4.662c0.242,0.595,0.83,1.017,1.517,1.017c0.688,0,1.274-0.422,1.519-1.017h0.059
		v-0.185c0.035-0.138,0.063-0.276,0.063-0.425V10.665C67.253,7.878,64.965,5.608,62.149,5.608z"/>
	<path style="fill-rule:evenodd;clip-rule:evenodd;fill:#76DECB;" d="M16.378,18.763H2.611c-1.44,0-2.61,1.168-2.61,2.608v13.55
		v38.189v12.727c0,1.443,1.17,2.614,2.61,2.614h12.727h32.085h31.309h12.723c1.446,0,2.614-1.171,2.614-2.614l0.001-12.727V34.1
		V21.372c0-1.44-1.169-2.608-2.615-2.608H78.731H47.423l0,0H16.378z"/>
	<g>
		<path style="fill-rule:evenodd;clip-rule:evenodd;fill:#5C3F25;" d="M13.055,19.45c0-0.231-0.01-0.458-0.022-0.687H2.08
			c-1.146,0-2.08,0.93-2.08,2.077l0.001,10.782c0.277,0.021,0.561,0.033,0.845,0.033C7.589,31.656,13.055,26.19,13.055,19.45z"/>
		<path style="fill-rule:evenodd;clip-rule:evenodd;fill:#5C3F25;" d="M94.069,31.816V20.984c0-1.226-0.996-2.221-2.224-2.221
			h-10.83C81.016,25.972,86.858,31.816,94.069,31.816z"/>
		<path style="fill-rule:evenodd;clip-rule:evenodd;fill:#5C3F25;" d="M94.069,86.229V75.396c-7.211,0-13.054,5.846-13.054,13.056
			h10.831C93.073,88.452,94.068,87.455,94.069,86.229z"/>
		<path style="fill-rule:evenodd;clip-rule:evenodd;fill:#5C3F25;" d="M0.001,75.409v10.833c0,1.226,0.996,2.22,2.221,2.22h10.833
			C13.055,81.253,7.209,75.409,0.001,75.409z"/>
	</g>
	<rect x="21.23" y="18.763" style="fill-rule:evenodd;clip-rule:evenodd;fill:#21A58D;" width="5.604" height="69.688"/>
	<rect x="69.474" y="18.763" style="fill-rule:evenodd;clip-rule:evenodd;fill:#21A58D;" width="5.604" height="69.688"/>
	<rect x="16.235" y="49.566" style="fill-rule:evenodd;clip-rule:evenodd;fill:#5C3F25;" width="15.943" height="9.66"/>
	<rect x="64.304" y="49.568" style="fill-rule:evenodd;clip-rule:evenodd;fill:#5C3F25;" width="15.943" height="9.658"/>
</g>
</svg>